<svg xmlns="http://www.w3.org/2000/svg" viewBox="0 0 40 40">
  <defs>
    <clipPath id="clip"><circle cx="20" cy="20" r="16.5"/></clipPath>
    <radialGradient id="shine" cx="36%" cy="28%" r="55%">
      <stop offset="0%" stop-color="#ffffff" stop-opacity="0.15"/>
      <stop offset="100%" stop-color="#000000" stop-opacity="0.22"/>
    </radialGradient>
  </defs>
  <circle cx="20" cy="20" r="17" fill="#8899AA"/>
  <circle cx="20" cy="20" r="17" fill="url(#shine)"/>
  <g clip-path="url(#clip)">
    <g fill="#0A0A0A">
    <path d="M12,34 C9,27 9,21 12,12 C14,21 14,27 12,34 Z"/>
    <path d="M28,34 C31,27 31,21 28,12 C26,21 26,27 28,34 Z"/>
    <path d="M20,36.5 C17,28 16,19 20,6 C24,19 23,28 20,36.5 Z"/>
  </g>
  </g>
  <circle cx="20" cy="20" r="17" fill="none" stroke="#6677AA" stroke-width="2"/>
  <circle cx="20" cy="20" r="19" fill="none" stroke="#C8B040" stroke-width="1.8"/>
</svg>
