<svg xmlns="http://www.w3.org/2000/svg" viewBox="0 0 40 40">
  <defs>
    <clipPath id="clip"><circle cx="20" cy="20" r="16.5"/></clipPath>
    <radialGradient id="shine" cx="36%" cy="28%" r="55%">
      <stop offset="0%" stop-color="#ffffff" stop-opacity="0.15"/>
      <stop offset="100%" stop-color="#000000" stop-opacity="0.22"/>
    </radialGradient>
  </defs>
  <circle cx="20" cy="20" r="17" fill="#8899AA"/>
  <circle cx="20" cy="20" r="17" fill="url(#shine)"/>
  <g clip-path="url(#clip)">
    <g stroke-linecap="round" stroke-linejoin="round">
    <line x1="20" y1="9" x2="20" y2="34" stroke="#0A0A0A" stroke-width="2" fill="none"/>
    <path d="M20,14 C12,16 12,18 20,20 C26,22 26,24 20,27 C16,29 16,31 20,33" stroke="#0A0A0A" stroke-width="1.8" fill="none"/>
    <path d="M20,14 C28,16 28,18 20,20 C14,22 14,24 20,27 C24,29 24,31 20,33" stroke="#0A0A0A" stroke-width="1.8" fill="none"/>
    <path d="M20,11 C16,9 12,8 9,8 L10,12 C13,13 17,12 20,11 Z" fill="#0A0A0A"/>
    <path d="M20,11 C24,9 28,8 31,8 L30,12 C27,13 23,12 20,11 Z" fill="#0A0A0A"/>
    <circle cx="20" cy="9" r="2.5" fill="#0A0A0A"/>
  </g>
  </g>
  <circle cx="20" cy="20" r="17" fill="none" stroke="#6677AA" stroke-width="2"/>
  <circle cx="20" cy="20" r="19" fill="none" stroke="#C8B040" stroke-width="1.8"/>
</svg>
