<svg xmlns="http://www.w3.org/2000/svg" viewBox="0 0 40 40">
  <defs>
    <clipPath id="clip"><circle cx="20" cy="20" r="16.5"/></clipPath>
    <clipPath id="leaf-clip"><path d="M20,7 C28,11 35,19 33,27 C31,31 26,33 20,33 C14,33 9,31 7,27 C5,19 12,11 20,7 Z"/></clipPath>
    <radialGradient id="shine" cx="36%" cy="28%" r="55%">
      <stop offset="0%" stop-color="#ffffff" stop-opacity="0.15"/>
      <stop offset="100%" stop-color="#000000" stop-opacity="0.22"/>
    </radialGradient>
  </defs>
  <circle cx="20" cy="20" r="17" fill="#0C4418"/>
  <circle cx="20" cy="20" r="17" fill="url(#shine)"/>
  <g clip-path="url(#clip)" stroke="#C8F5D8" fill="#C8F5D8" stroke-linecap="round">
    <path d="M20,7 C28,11 35,19 33,27 C31,31 26,33 20,33 C14,33 9,31 7,27 C5,19 12,11 20,7 Z" fill-opacity="0.28" stroke-width="2.25"/>
    <line x1="20" y1="33" x2="20" y2="37" stroke-width="2.7"/>
    <g clip-path="url(#leaf-clip)" fill="none">
      <line x1="20" y1="7" x2="20" y2="33" stroke="#C8F5D8" stroke-width="2.7"/>
      <path d="M20,13 C17,11 12,8 4,6" stroke="#C8F5D8" stroke-width="1.65"/>
      <path d="M20,13 C23,11 28,8 36,6" stroke="#C8F5D8" stroke-width="1.65"/>
      <path d="M20,18 C17,15 12,12 3,10" stroke="#C8F5D8" stroke-width="1.65"/>
      <path d="M20,18 C23,15 28,12 37,10" stroke="#C8F5D8" stroke-width="1.65"/>
      <path d="M20,23 C16,20 11,17 2,16" stroke="#C8F5D8" stroke-width="1.65"/>
      <path d="M20,23 C24,20 29,17 38,16" stroke="#C8F5D8" stroke-width="1.65"/>
      <path d="M20,28 C16,25 11,22 2,21" stroke="#C8F5D8" stroke-width="1.65"/>
      <path d="M20,28 C24,25 29,22 38,21" stroke="#C8F5D8" stroke-width="1.65"/>
    </g>
  </g>
  <circle cx="20" cy="20" r="17" fill="none" stroke="#247030" stroke-width="2"/>
  <circle cx="20" cy="20" r="19" fill="none" stroke="#C8B040" stroke-width="1.8"/>
</svg>
