<svg xmlns="http://www.w3.org/2000/svg" viewBox="0 0 40 40">
  <defs>
    <clipPath id="clip"><circle cx="20" cy="20" r="16.5"/></clipPath>
    <radialGradient id="shine" cx="36%" cy="28%" r="55%">
      <stop offset="0%" stop-color="#ffffff" stop-opacity="0.15"/>
      <stop offset="100%" stop-color="#000000" stop-opacity="0.22"/>
    </radialGradient>
  </defs>
  <circle cx="20" cy="20" r="17" fill="#0C2E86"/>
  <circle cx="20" cy="20" r="17" fill="url(#shine)"/>
  <g clip-path="url(#clip)" stroke="#E8F0FF" stroke-linecap="round" stroke-linejoin="round">
    <path d="M20,13 L7,10 L7,27 L20,30 Z" fill="#E8F0FF" fill-opacity="0.20" stroke-width="2.25"/>
    <path d="M20,13 L33,10 L33,27 L20,30 Z" fill="#E8F0FF" fill-opacity="0.20" stroke-width="2.25"/>
    <line x1="20" y1="13" x2="20" y2="30" stroke="#E8F0FF" stroke-width="3.75" stroke-linecap="butt"/>
    <circle cx="20" cy="30" r="1.75" fill="#E8F0FF" stroke="none"/>
    <line x1="18" y1="16.5" x2="9" y2="14" stroke="#E8F0FF" stroke-width="1.8" opacity="0.8"/>
    <line x1="18" y1="21" x2="9" y2="18.5" stroke="#E8F0FF" stroke-width="1.8" opacity="0.8"/>
    <line x1="18" y1="25.5" x2="9" y2="23" stroke="#E8F0FF" stroke-width="1.8" opacity="0.8"/>
    <line x1="22" y1="16.5" x2="31" y2="14" stroke="#E8F0FF" stroke-width="1.8" opacity="0.8"/>
    <line x1="22" y1="21" x2="31" y2="18.5" stroke="#E8F0FF" stroke-width="1.8" opacity="0.8"/>
    <line x1="22" y1="25.5" x2="31" y2="23" stroke="#E8F0FF" stroke-width="1.8" opacity="0.8"/>
  </g>
  <circle cx="20" cy="20" r="17" fill="none" stroke="#3868CC" stroke-width="2"/>
  <circle cx="20" cy="20" r="19" fill="none" stroke="#C8B040" stroke-width="1.8"/>
</svg>
